<svg width="70" height="70" viewBox="0 0 70 70" fill="none" xmlns="http://www.w3.org/2000/svg">
<circle cx="35" cy="35" r="35" fill="url(#paint0_linear_3204_18179)"/>
<path fill-rule="evenodd" clip-rule="evenodd" d="M35 20.4167C33.3891 20.4167 32.0833 21.7226 32.0833 23.3334V28.0834C32.0833 30.2926 30.2924 32.0834 28.0833 32.0834H23.3333C21.7225 32.0834 20.4166 33.3892 20.4166 35.0001C20.4166 36.6109 21.7225 37.9167 23.3333 37.9167H28.0833C30.2924 37.9167 32.0833 39.7076 32.0833 41.9167V46.6667C32.0833 48.2776 33.3891 49.5834 35 49.5834C36.6108 49.5834 37.9166 48.2776 37.9166 46.6667V41.9167C37.9166 39.7076 39.7075 37.9167 41.9166 37.9167H46.6666C48.2775 37.9167 49.5833 36.6109 49.5833 35.0001C49.5833 33.3893 48.2775 32.0834 46.6666 32.0834H41.9166C39.7075 32.0834 37.9166 30.2926 37.9166 28.0834V23.3334C37.9166 21.7226 36.6108 20.4167 35 20.4167Z" fill="white"/>
<defs>
<linearGradient id="paint0_linear_3204_18179" x1="0" y1="35" x2="70" y2="35" gradientUnits="userSpaceOnUse">
<stop stop-color="#8444F9"/>
<stop offset="1" stop-color="#EB77C7"/>
</linearGradient>
</defs>
</svg>
