<svg width="32" height="32" viewBox="0 0 32 32" fill="none" xmlns="http://www.w3.org/2000/svg">
<path d="M11.9998 29.3332H19.9998C26.6665 29.3332 29.3332 26.6665 29.3332 19.9998V11.9998C29.3332 5.33317 26.6665 2.6665 19.9998 2.6665H11.9998C5.33317 2.6665 2.6665 5.33317 2.6665 11.9998V19.9998C2.6665 26.6665 5.33317 29.3332 11.9998 29.3332Z" stroke="url(#paint0_linear_2112_63417)" stroke-width="2" stroke-linecap="round" stroke-linejoin="round"/>
<path fill-rule="evenodd" clip-rule="evenodd" d="M23.3333 22.0002C23.3333 23.4668 22.1333 24.6668 20.6667 24.6668C19.1867 24.6668 18 23.4668 18 22.0002V10.0002C18 8.5335 19.2 7.3335 20.6667 7.3335C22.1333 7.3335 23.3333 8.5335 23.3333 10.0002V22.0002ZM13.9998 21.9998C13.9998 23.4665 12.7998 24.6665 11.3332 24.6665C9.85317 24.6665 8.6665 23.4665 8.6665 21.9998V17.3332C8.6665 15.8665 9.8665 14.6665 11.3332 14.6665C12.7998 14.6665 13.9998 15.8665 13.9998 17.3332V21.9998Z" fill="url(#paint1_linear_2112_63417)"/>
<path d="M20.6667 25.6668C22.6856 25.6668 24.3333 24.0191 24.3333 22.0002H22.3333C22.3333 22.9145 21.581 23.6668 20.6667 23.6668V25.6668ZM17 22.0002C17 24.0159 18.6311 25.6668 20.6667 25.6668V23.6668C19.7422 23.6668 19 22.9178 19 22.0002H17ZM17 10.0002V22.0002H19V10.0002H17ZM20.6667 6.3335C18.6477 6.3335 17 7.98121 17 10.0002H19C19 9.08578 19.7523 8.3335 20.6667 8.3335V6.3335ZM24.3333 10.0002C24.3333 7.98121 22.6856 6.3335 20.6667 6.3335V8.3335C21.581 8.3335 22.3333 9.08578 22.3333 10.0002H24.3333ZM24.3333 22.0002V10.0002H22.3333V22.0002H24.3333ZM11.3332 25.6665C13.3521 25.6665 14.9998 24.0188 14.9998 21.9998H12.9998C12.9998 22.9142 12.2476 23.6665 11.3332 23.6665V25.6665ZM7.6665 21.9998C7.6665 24.0155 9.29763 25.6665 11.3332 25.6665V23.6665C10.4087 23.6665 9.6665 22.9175 9.6665 21.9998H7.6665ZM7.6665 17.3332V21.9998H9.6665V17.3332H7.6665ZM11.3332 13.6665C9.31422 13.6665 7.6665 15.3142 7.6665 17.3332H9.6665C9.6665 16.4188 10.4188 15.6665 11.3332 15.6665V13.6665ZM14.9998 17.3332C14.9998 15.3142 13.3521 13.6665 11.3332 13.6665V15.6665C12.2476 15.6665 12.9998 16.4188 12.9998 17.3332H14.9998ZM14.9998 21.9998V17.3332H12.9998V21.9998H14.9998Z" fill="url(#paint2_linear_2112_63417)"/>
<defs>
<linearGradient id="paint0_linear_2112_63417" x1="2.6665" y1="15.9998" x2="29.3332" y2="15.9998" gradientUnits="userSpaceOnUse">
<stop stop-color="#8444F9"/>
<stop offset="1" stop-color="#EB77C7"/>
</linearGradient>
<linearGradient id="paint1_linear_2112_63417" x1="8.6665" y1="16.0002" x2="23.3333" y2="16.0002" gradientUnits="userSpaceOnUse">
<stop stop-color="#8444F9"/>
<stop offset="1" stop-color="#EB77C7"/>
</linearGradient>
<linearGradient id="paint2_linear_2112_63417" x1="8.6665" y1="16.0002" x2="23.3333" y2="16.0002" gradientUnits="userSpaceOnUse">
<stop stop-color="#8444F9"/>
<stop offset="1" stop-color="#EB77C7"/>
</linearGradient>
</defs>
</svg>
